<svg width="24" height="25" viewBox="0 0 24 25" fill="none" xmlns="http://www.w3.org/2000/svg">
<path d="M7.08994 5.89794L11.9999 3.14294L16.9099 5.89794L15.1099 6.91794L11.9999 5.17794L8.89494 6.91794L7.08994 5.89794ZM16.9099 9.37794L15.1099 8.35794L11.9999 10.0979L8.89494 8.35794L7.08994 9.37794V11.4129L10.1899 13.1529V16.6279L11.9999 17.6479L13.8049 16.6279V13.1529L16.9099 11.4129V9.37794ZM16.9099 14.8929V12.8529L15.1099 13.8729V15.9079L16.9099 14.8929ZM18.1949 15.6129L15.0899 17.3479V19.3879L19.9999 16.6279V11.1179L18.1949 12.1329V15.6129ZM16.3899 7.63794L18.1899 8.65794V10.6929L19.9999 9.67794V7.63794L18.1949 6.61794L16.3899 7.64294V7.63794ZM10.1899 18.0879V20.1229L11.9999 21.1429L13.8049 20.1229V18.0929L11.9999 19.1079L10.1949 18.0879H10.1899ZM7.08994 14.8879L8.88994 15.9079V13.8729L7.08994 12.8529V14.8929V14.8879ZM10.1899 7.63794L11.9999 8.65794L13.8049 7.63794L11.9999 6.61794L10.1949 7.64294L10.1899 7.63794ZM5.80494 8.65794L7.60994 7.63794L5.80994 6.61794L3.99994 7.64294V9.68294L5.80494 10.6979V8.65794ZM5.80494 12.1329L3.99994 11.1179V16.6279L8.90994 19.3879V17.3429L5.80994 15.6079V12.1279L5.80494 12.1329Z" fill="#F0B90B"/>
</svg>
