<svg width="29" height="29" viewBox="0 0 29 29" fill="none" xmlns="http://www.w3.org/2000/svg">
<path fill-rule="evenodd" clip-rule="evenodd" d="M13.0369 3.55564C7.77209 4.13373 3.66113 8.60394 3.66113 14.0197C3.66113 19.8275 8.38645 24.5516 14.193 24.5516C19.9996 24.5516 24.725 19.8275 24.725 14.0197C24.725 8.60394 20.614 4.13373 15.3492 3.55564C14.4406 3.49562 13.9647 3.49593 13.0369 3.55564ZM14.1931 21.9186C9.83752 21.9186 6.29411 18.3752 6.29411 14.0197C6.29411 9.66417 9.83752 6.12076 14.1931 6.12076C18.5486 6.12076 22.092 9.66417 22.092 14.0197C22.092 18.3752 18.5486 21.9186 14.1931 21.9186ZM16.5335 14.0197H14.1931V11.6793C14.1931 11.0321 13.6688 10.5091 13.0228 10.5091C12.3769 10.5091 11.8526 11.0321 11.8526 11.6793V15.1899C11.8526 15.837 12.3769 16.3601 13.0228 16.3601H16.5335C17.1794 16.3601 17.7037 15.837 17.7037 15.1899C17.7037 14.5428 17.1794 14.0197 16.5335 14.0197Z" fill="#A0FF06"/>
</svg>
