<svg width="302" height="134" viewBox="0 0 302 134" fill="none" xmlns="http://www.w3.org/2000/svg">
<g filter="url(#filter0_di_14_5422)">
<path d="M126.842 49.656V92.7834L119.843 85.851H157.104V99.6491H111.311V49.656H126.842Z" fill="#A0FF06"/>
<path d="M126.842 49.656V92.7834L119.843 85.851H157.104V99.6491H111.311V49.656H126.842Z" fill="url(#paint0_linear_14_5422)"/>
<path d="M173.599 90.6504V78.2521H207.861V90.6504H173.599ZM201.262 49.656L223.659 99.6491H207.061L188.931 56.3884H193.13L174.932 99.6491H158.401L180.732 49.656H201.262Z" fill="#A0FF06"/>
<path d="M173.599 90.6504V78.2521H207.861V90.6504H173.599ZM201.262 49.656L223.659 99.6491H207.061L188.931 56.3884H193.13L174.932 99.6491H158.401L180.732 49.656H201.262Z" fill="url(#paint1_linear_14_5422)"/>
<path d="M261.839 75.2525L263.106 72.4529C266.883 72.5417 270.038 73.1417 272.571 74.2526C275.104 75.3191 276.993 76.8078 278.237 78.7187C279.481 80.6295 280.104 82.8736 280.104 85.4511C280.104 88.1618 279.481 90.6059 278.237 92.7834C277.037 94.9164 275.193 96.6051 272.705 97.8494C270.216 99.0492 267.128 99.6491 263.439 99.6491H225.378V73.986V49.656H262.039C266.661 49.656 270.26 50.7447 272.838 52.9222C275.46 55.0553 276.771 58.0326 276.771 61.8543C276.771 63.9874 276.282 66.0093 275.304 67.9202C274.371 69.831 272.793 71.453 270.572 72.7861C268.394 74.0749 265.483 74.897 261.839 75.2525ZM240.576 96.1829L234.643 89.1172H258.84C260.573 89.1172 261.928 88.6951 262.906 87.8507C263.884 86.962 264.372 85.7399 264.372 84.1846C264.372 82.7181 263.861 81.5183 262.839 80.5851C261.817 79.6074 260.329 79.1186 258.373 79.1186H238.243V68.8534H256.174C257.551 68.8534 258.707 68.4312 259.64 67.5869C260.573 66.7425 261.04 65.6316 261.04 64.254C261.04 63.0986 260.617 62.1432 259.773 61.3877C258.973 60.5878 257.818 60.1879 256.307 60.1879H234.71L240.576 53.1222L240.176 73.986L240.576 96.1829Z" fill="#A0FF06"/>
<path d="M261.839 75.2525L263.106 72.4529C266.883 72.5417 270.038 73.1417 272.571 74.2526C275.104 75.3191 276.993 76.8078 278.237 78.7187C279.481 80.6295 280.104 82.8736 280.104 85.4511C280.104 88.1618 279.481 90.6059 278.237 92.7834C277.037 94.9164 275.193 96.6051 272.705 97.8494C270.216 99.0492 267.128 99.6491 263.439 99.6491H225.378V73.986V49.656H262.039C266.661 49.656 270.26 50.7447 272.838 52.9222C275.46 55.0553 276.771 58.0326 276.771 61.8543C276.771 63.9874 276.282 66.0093 275.304 67.9202C274.371 69.831 272.793 71.453 270.572 72.7861C268.394 74.0749 265.483 74.897 261.839 75.2525ZM240.576 96.1829L234.643 89.1172H258.84C260.573 89.1172 261.928 88.6951 262.906 87.8507C263.884 86.962 264.372 85.7399 264.372 84.1846C264.372 82.7181 263.861 81.5183 262.839 80.5851C261.817 79.6074 260.329 79.1186 258.373 79.1186H238.243V68.8534H256.174C257.551 68.8534 258.707 68.4312 259.64 67.5869C260.573 66.7425 261.04 65.6316 261.04 64.254C261.04 63.0986 260.617 62.1432 259.773 61.3877C258.973 60.5878 257.818 60.1879 256.307 60.1879H234.71L240.576 53.1222L240.176 73.986L240.576 96.1829Z" fill="url(#paint2_linear_14_5422)"/>
</g>
<g filter="url(#filter1_di_14_5422)">
<path d="M97.3713 74.5196C97.7303 84.6009 94.1394 94.2226 87.2675 101.606C84.657 104.406 81.698 106.754 78.4764 108.614C73.201 111.66 67.2299 113.39 60.9689 113.613C53.523 113.876 46.2409 111.966 39.9127 108.086C37.5167 106.617 35.2739 104.873 33.2551 102.907L33.1413 102.794C33.0964 102.751 33.0544 102.706 33.0093 102.663C28.6076 98.296 25.326 92.8646 23.5138 86.9536C22.5488 83.8152 21.9966 80.5358 21.8787 77.2083C21.5288 67.3451 25.0102 58.2158 30.9902 51.2662L26.4494 43.4012C23.2484 44.2647 19.7367 42.9128 18.0033 39.9101C16.2698 36.9076 16.8546 33.1904 19.2029 30.8501C19.6523 30.4002 20.1707 29.9996 20.7481 29.6663C21.3256 29.3328 20.7481 29.6661 22.4194 28.7011L24.3496 32.0442C22.6781 33.0092 23.292 32.6547 22.6781 33.0092C22.0642 33.3635 21.5916 33.8714 21.2839 34.4543C20.7162 35.5276 20.697 36.8557 21.3462 37.9801C21.9954 39.1046 23.1535 39.7489 24.3684 39.7969C25.0271 39.8218 25.7033 39.6666 26.3171 39.3121C26.931 38.9577 26.3171 39.3121 27.9885 38.3471L35.7543 51.7978C34.7945 52.7531 33.8884 53.7665 33.0465 54.8279C28.2119 60.9258 25.4399 68.7013 25.7379 77.0711C25.8435 80.0613 26.3362 83.0063 27.2049 85.8232C28.8318 91.1323 31.7833 96.0129 35.7432 99.9383L35.8486 100.044C35.8871 100.082 35.9256 100.121 35.9658 100.162C37.7757 101.921 39.7809 103.478 41.9304 104.794C47.6091 108.279 54.1469 109.994 60.8315 109.754C69.8852 109.433 78.2673 105.607 84.4405 98.9758C90.6122 92.345 93.8353 83.709 93.5119 74.657C93.3117 69.0391 91.7617 63.6735 89.0266 58.9357C87.358 56.0455 85.2474 53.3863 82.7348 51.0485C76.1062 44.8746 67.4706 41.6511 58.4186 41.9745C57.1792 42.0173 55.9597 42.1299 54.7609 42.2993C53.4033 42.4955 52.0757 42.7717 50.7794 43.1231L43.0136 29.6724C44.685 28.7074 44.0711 29.0619 44.685 28.7074C45.2988 28.353 45.7715 27.8452 46.0793 27.2622C46.6451 26.1859 46.6644 24.8578 46.017 23.7365C45.3695 22.615 44.2079 21.9647 42.9947 21.9196C42.336 21.8947 41.6598 22.05 41.0459 22.4045C40.4322 22.7589 41.0459 22.4045 39.3745 23.3695L37.4445 20.0266C39.1159 19.0616 38.5385 19.3949 39.1159 19.0616C39.6933 18.7282 40.2994 18.4796 40.9137 18.3154C44.1147 17.4518 47.6263 18.8038 49.3599 21.8065C51.0933 24.809 50.5084 28.5261 48.1601 30.8665L52.7028 38.7345C54.5202 38.3944 56.3818 38.1867 58.2832 38.1182C68.3643 37.7599 77.984 41.3472 85.366 48.2241C92.7481 55.101 97.0139 64.4384 97.3713 74.5196Z" fill="#D3FF8B"/>
</g>
<mask id="mask0_14_5422" style="mask-type:alpha" maskUnits="userSpaceOnUse" x="29" y="45" width="62" height="62">
<path d="M75.0643 102.352C89.6598 93.9252 94.6606 75.262 86.2339 60.6665C77.8072 46.0711 59.144 41.0703 44.5485 49.497C29.9531 57.9237 24.9523 76.5869 33.379 91.1823C41.8057 105.778 60.4688 110.779 75.0643 102.352Z" fill="#D9D9D9"/>
</mask>
<g mask="url(#mask0_14_5422)">
<path fill-rule="evenodd" clip-rule="evenodd" d="M91.1119 74.7443C91.7304 92.1347 78.1366 106.739 60.7455 107.358C54.3213 107.586 48.2756 105.874 43.1797 102.746C56.4057 98.8867 65.0665 83.7157 66.4295 81.0445C71.9448 70.2021 87.4053 61.8881 87.7732 61.6914C89.7592 65.63 90.9443 70.0474 91.1149 74.7427L91.1119 74.7443Z" fill="#A0FF06"/>
<path fill-rule="evenodd" clip-rule="evenodd" d="M87.7721 61.6924C87.4043 61.8891 71.9438 70.203 66.4285 81.0457C65.0654 83.7168 56.4064 98.8908 43.1786 102.747C41.1678 101.517 39.3041 100.065 37.6211 98.4272C38.5695 98.1187 39.4708 97.813 40.3344 97.505C56.3217 91.7958 58.3677 85.9912 64.6003 78.4543C64.8669 78.1302 65.1298 77.8204 65.3942 77.5138C76.458 64.5742 87.4606 61.763 87.7706 61.6971L87.7721 61.6924Z" fill="#D3FF8B"/>
<path fill-rule="evenodd" clip-rule="evenodd" d="M65.3967 77.5039C65.1307 77.8154 64.8679 78.1251 64.6043 78.4476C58.3688 85.9862 56.3258 91.7891 40.3384 97.4982C39.4749 97.8063 38.5735 98.112 37.6252 98.4204C37.563 98.3549 37.4966 98.2961 37.4346 98.2307C33.8006 94.6316 31.0411 90.1467 29.5 85.1123C34.3508 87.0081 51.6701 91.1786 65.3979 77.499L65.3967 77.5039Z" fill="#B6E063"/>
</g>
<g filter="url(#filter2_di_14_5422)">
<path d="M43.7247 42.1665C45.2285 41.2983 45.7438 39.3753 44.8755 37.8715C44.0072 36.3676 42.0843 35.8523 40.5805 36.7206C39.0766 37.5889 38.5614 39.5118 39.4295 41.0156C40.2978 42.5195 42.2208 43.0348 43.7247 42.1665Z" fill="#B6E063"/>
</g>
<g filter="url(#filter3_di_14_5422)">
<path d="M25.3577 20.1971C27.2023 19.1321 27.8343 16.7735 26.7693 14.9289C25.7044 13.0844 23.3457 12.4524 21.5012 13.5173C19.6566 14.5823 19.0246 16.9409 20.0896 18.7855C21.1546 20.63 23.5132 21.262 25.3577 20.1971Z" fill="#A0FF06"/>
</g>
<g filter="url(#filter4_di_14_5422)">
<path d="M33.9725 26.1765C35.2951 25.4128 35.7484 23.7216 34.9847 22.3992C34.2211 21.0766 32.5299 20.6235 31.2073 21.387C29.8847 22.1506 29.4316 23.8418 30.1951 25.1644C30.9589 26.487 32.65 26.9401 33.9725 26.1765Z" fill="#D3FF8B"/>
</g>
<g filter="url(#filter5_di_14_5422)">
<path d="M34.2159 35.1966C35.1274 34.6704 35.4396 33.505 34.9133 32.5937C34.3872 31.6823 33.2218 31.37 32.3105 31.8963C31.3991 32.4224 31.0869 33.5878 31.613 34.4992C32.1392 35.4105 33.3046 35.7227 34.2159 35.1966Z" fill="#A0FF06"/>
</g>
<defs>
<filter id="filter0_di_14_5422" x="89.7628" y="33.4952" width="211.888" height="93.0886" filterUnits="userSpaceOnUse" color-interpolation-filters="sRGB">
<feFlood flood-opacity="0" result="BackgroundImageFix"/>
<feColorMatrix in="SourceAlpha" type="matrix" values="0 0 0 0 0 0 0 0 0 0 0 0 0 0 0 0 0 0 127 0" result="hardAlpha"/>
<feOffset dy="5.38693"/>
<feGaussianBlur stdDeviation="10.7739"/>
<feComposite in2="hardAlpha" operator="out"/>
<feColorMatrix type="matrix" values="0 0 0 0 0.627451 0 0 0 0 1 0 0 0 0 0.0235294 0 0 0 0.2 0"/>
<feBlend mode="normal" in2="BackgroundImageFix" result="effect1_dropShadow_14_5422"/>
<feBlend mode="normal" in="SourceGraphic" in2="effect1_dropShadow_14_5422" result="shape"/>
<feColorMatrix in="SourceAlpha" type="matrix" values="0 0 0 0 0 0 0 0 0 0 0 0 0 0 0 0 0 0 127 0" result="hardAlpha"/>
<feOffset/>
<feGaussianBlur stdDeviation="1.38764"/>
<feComposite in2="hardAlpha" operator="arithmetic" k2="-1" k3="1"/>
<feColorMatrix type="matrix" values="0 0 0 0 0.897872 0 0 0 0 1 0 0 0 0 0.6 0 0 0 1 0"/>
<feBlend mode="normal" in2="shape" result="effect2_innerShadow_14_5422"/>
</filter>
<filter id="filter1_di_14_5422" x="0.780199" y="5.89374" width="112.836" height="128.018" filterUnits="userSpaceOnUse" color-interpolation-filters="sRGB">
<feFlood flood-opacity="0" result="BackgroundImageFix"/>
<feColorMatrix in="SourceAlpha" type="matrix" values="0 0 0 0 0 0 0 0 0 0 0 0 0 0 0 0 0 0 127 0" result="hardAlpha"/>
<feOffset dy="4.05494"/>
<feGaussianBlur stdDeviation="8.1099"/>
<feComposite in2="hardAlpha" operator="out"/>
<feColorMatrix type="matrix" values="0 0 0 0 0.686275 0 0 0 0 0.921569 0 0 0 0 0 0 0 0 0.3 0"/>
<feBlend mode="normal" in2="BackgroundImageFix" result="effect1_dropShadow_14_5422"/>
<feBlend mode="normal" in="SourceGraphic" in2="effect1_dropShadow_14_5422" result="shape"/>
<feColorMatrix in="SourceAlpha" type="matrix" values="0 0 0 0 0 0 0 0 0 0 0 0 0 0 0 0 0 0 127 0" result="hardAlpha"/>
<feOffset/>
<feGaussianBlur stdDeviation="1.57791"/>
<feComposite in2="hardAlpha" operator="arithmetic" k2="-1" k3="1"/>
<feColorMatrix type="matrix" values="0 0 0 0 0.864221 0 0 0 0 1 0 0 0 0 0.468197 0 0 0 1 0"/>
<feBlend mode="normal" in2="shape" result="effect2_innerShadow_14_5422"/>
</filter>
<filter id="filter2_di_14_5422" x="22.2953" y="23.7644" width="39.7146" height="39.7143" filterUnits="userSpaceOnUse" color-interpolation-filters="sRGB">
<feFlood flood-opacity="0" result="BackgroundImageFix"/>
<feColorMatrix in="SourceAlpha" type="matrix" values="0 0 0 0 0 0 0 0 0 0 0 0 0 0 0 0 0 0 127 0" result="hardAlpha"/>
<feOffset dy="4.17813"/>
<feGaussianBlur stdDeviation="8.35625"/>
<feComposite in2="hardAlpha" operator="out"/>
<feColorMatrix type="matrix" values="0 0 0 0 0.835294 0 0 0 0 1 0 0 0 0 0.552941 0 0 0 0.2 0"/>
<feBlend mode="normal" in2="BackgroundImageFix" result="effect1_dropShadow_14_5422"/>
<feBlend mode="normal" in="SourceGraphic" in2="effect1_dropShadow_14_5422" result="shape"/>
<feColorMatrix in="SourceAlpha" type="matrix" values="0 0 0 0 0 0 0 0 0 0 0 0 0 0 0 0 0 0 127 0" result="hardAlpha"/>
<feOffset/>
<feGaussianBlur stdDeviation="1.67125"/>
<feComposite in2="hardAlpha" operator="arithmetic" k2="-1" k3="1"/>
<feColorMatrix type="matrix" values="0 0 0 0 0.891199 0 0 0 0 1 0 0 0 0 0.573861 0 0 0 1 0"/>
<feBlend mode="normal" in2="shape" result="effect2_innerShadow_14_5422"/>
</filter>
<filter id="filter3_di_14_5422" x="2.85976" y="0.342438" width="41.1394" height="41.1394" filterUnits="userSpaceOnUse" color-interpolation-filters="sRGB">
<feFlood flood-opacity="0" result="BackgroundImageFix"/>
<feColorMatrix in="SourceAlpha" type="matrix" values="0 0 0 0 0 0 0 0 0 0 0 0 0 0 0 0 0 0 127 0" result="hardAlpha"/>
<feOffset dy="4.05494"/>
<feGaussianBlur stdDeviation="8.35625"/>
<feComposite in2="hardAlpha" operator="out"/>
<feColorMatrix type="matrix" values="0 0 0 0 0.686275 0 0 0 0 0.921569 0 0 0 0 0 0 0 0 0.2 0"/>
<feBlend mode="normal" in2="BackgroundImageFix" result="effect1_dropShadow_14_5422"/>
<feBlend mode="normal" in="SourceGraphic" in2="effect1_dropShadow_14_5422" result="shape"/>
<feColorMatrix in="SourceAlpha" type="matrix" values="0 0 0 0 0 0 0 0 0 0 0 0 0 0 0 0 0 0 127 0" result="hardAlpha"/>
<feOffset/>
<feGaussianBlur stdDeviation="1.04453"/>
<feComposite in2="hardAlpha" operator="arithmetic" k2="-1" k3="1"/>
<feColorMatrix type="matrix" values="0 0 0 0 0.897872 0 0 0 0 1 0 0 0 0 0.6 0 0 0 1 0"/>
<feBlend mode="normal" in2="shape" result="effect2_innerShadow_14_5422"/>
</filter>
<filter id="filter4_di_14_5422" x="13.1117" y="8.48173" width="38.9563" height="38.9563" filterUnits="userSpaceOnUse" color-interpolation-filters="sRGB">
<feFlood flood-opacity="0" result="BackgroundImageFix"/>
<feColorMatrix in="SourceAlpha" type="matrix" values="0 0 0 0 0 0 0 0 0 0 0 0 0 0 0 0 0 0 127 0" result="hardAlpha"/>
<feOffset dy="4.17813"/>
<feGaussianBlur stdDeviation="8.35625"/>
<feComposite in2="hardAlpha" operator="out"/>
<feColorMatrix type="matrix" values="0 0 0 0 0.835294 0 0 0 0 1 0 0 0 0 0.552941 0 0 0 0.2 0"/>
<feBlend mode="normal" in2="BackgroundImageFix" result="effect1_dropShadow_14_5422"/>
<feBlend mode="normal" in="SourceGraphic" in2="effect1_dropShadow_14_5422" result="shape"/>
<feColorMatrix in="SourceAlpha" type="matrix" values="0 0 0 0 0 0 0 0 0 0 0 0 0 0 0 0 0 0 127 0" result="hardAlpha"/>
<feOffset/>
<feGaussianBlur stdDeviation="1.67125"/>
<feComposite in2="hardAlpha" operator="arithmetic" k2="-1" k3="1"/>
<feColorMatrix type="matrix" values="0 0 0 0 0.891199 0 0 0 0 1 0 0 0 0 0.573861 0 0 0 1 0"/>
<feBlend mode="normal" in2="shape" result="effect2_innerShadow_14_5422"/>
</filter>
<filter id="filter5_di_14_5422" x="14.6449" y="18.9831" width="37.2365" height="37.2365" filterUnits="userSpaceOnUse" color-interpolation-filters="sRGB">
<feFlood flood-opacity="0" result="BackgroundImageFix"/>
<feColorMatrix in="SourceAlpha" type="matrix" values="0 0 0 0 0 0 0 0 0 0 0 0 0 0 0 0 0 0 127 0" result="hardAlpha"/>
<feOffset dy="4.05494"/>
<feGaussianBlur stdDeviation="8.35625"/>
<feComposite in2="hardAlpha" operator="out"/>
<feColorMatrix type="matrix" values="0 0 0 0 0.686275 0 0 0 0 0.921569 0 0 0 0 0 0 0 0 0.2 0"/>
<feBlend mode="normal" in2="BackgroundImageFix" result="effect1_dropShadow_14_5422"/>
<feBlend mode="normal" in="SourceGraphic" in2="effect1_dropShadow_14_5422" result="shape"/>
<feColorMatrix in="SourceAlpha" type="matrix" values="0 0 0 0 0 0 0 0 0 0 0 0 0 0 0 0 0 0 127 0" result="hardAlpha"/>
<feOffset/>
<feGaussianBlur stdDeviation="1.04453"/>
<feComposite in2="hardAlpha" operator="arithmetic" k2="-1" k3="1"/>
<feColorMatrix type="matrix" values="0 0 0 0 0.897872 0 0 0 0 1 0 0 0 0 0.6 0 0 0 1 0"/>
<feBlend mode="normal" in2="shape" result="effect2_innerShadow_14_5422"/>
</filter>
<linearGradient id="paint0_linear_14_5422" x1="208.601" y1="148.656" x2="230.498" y2="30.8431" gradientUnits="userSpaceOnUse">
<stop offset="0.297119" stop-color="#A0FF06" stop-opacity="0"/>
<stop offset="1" stop-color="#D3FF8B"/>
</linearGradient>
<linearGradient id="paint1_linear_14_5422" x1="208.601" y1="148.656" x2="230.498" y2="30.8431" gradientUnits="userSpaceOnUse">
<stop offset="0.297119" stop-color="#A0FF06" stop-opacity="0"/>
<stop offset="1" stop-color="#D3FF8B"/>
</linearGradient>
<linearGradient id="paint2_linear_14_5422" x1="208.601" y1="148.656" x2="230.498" y2="30.8431" gradientUnits="userSpaceOnUse">
<stop offset="0.297119" stop-color="#A0FF06" stop-opacity="0"/>
<stop offset="1" stop-color="#D3FF8B"/>
</linearGradient>
</defs>
</svg>
