<svg width="29" height="29" viewBox="0 0 29 29" fill="none" xmlns="http://www.w3.org/2000/svg">
<path fill-rule="evenodd" clip-rule="evenodd" d="M17.2152 23.405C17.1367 23.405 17.056 23.4015 16.9753 23.3933C15.9455 23.2915 15.138 22.5648 14.9157 21.5409L11.776 7.03959L8.5427 14.5079C8.35664 14.9362 7.93419 15.2135 7.46845 15.2135H3.95781C3.31068 15.2135 2.7876 14.6893 2.7876 14.0433C2.7876 13.3962 3.31068 12.8731 3.95781 12.8731H6.70079L9.63334 6.09874C10.0488 5.14385 10.9639 4.588 12.0042 4.69214C13.034 4.79395 13.8414 5.52066 14.0638 6.54459L17.2034 21.0459L20.4367 13.5776C20.6228 13.1493 21.0441 12.8731 21.511 12.8731H25.0216C25.6688 12.8731 26.1919 13.3962 26.1919 14.0433C26.1919 14.6893 25.6688 15.2135 25.0216 15.2135H22.2787L19.3461 21.9867C18.9634 22.8679 18.1431 23.405 17.2152 23.405Z" fill="#A0FF06"/>
</svg>
